<?xml version="1.0" encoding="UTF-8"?>
<svg xmlns="http://www.w3.org/2000/svg" width="206" height="40" viewBox="0 0 206 40" fill="none">
    <path fill-rule="evenodd" clip-rule="evenodd"
          d="M62.6496 24.6146L63.9085 27.0432C62.3336 28.5824 60.0317 29.1363 57.8859 29.1575C55.2708 29.1833 52.7776 28.3289 50.8618 26.5146C49.0534 24.6671 48.062 22.0816 48.1724 19.5003C48.087 16.9455 48.7183 14.6382 50.7331 12.5718C52.6115 10.6452 55.133 9.76045 57.8 9.84319C60.1539 9.91621 61.9245 10.4093 63.5223 11.7432L62.0917 14.1718C60.8203 13.3313 59.5464 12.8873 57.8 12.9146C56.8496 12.9295 56.1637 13.0342 55.4043 13.3444C52.9851 14.3327 51.5376 16.9244 51.6773 19.5003C51.4996 23.1501 54.5108 26.1312 58.172 26.1146C60.0164 26.1063 61.3599 25.5871 62.6496 24.6146ZM67.2417 20.0003L66.4692 17.7432C67.7683 16.9778 69.0263 16.599 70.7609 16.6003C71.5368 16.601 72.0993 16.6199 72.7342 16.8313C73.3692 17.0427 73.9538 17.3822 74.4517 17.8289C75.3082 18.891 75.7231 20.2413 75.6105 21.6003V28.8575H72.9639V27.4289C72.5465 27.9673 72.0002 28.3921 71.3752 28.6642C70.3587 29.1068 68.951 29.143 67.9041 28.7584C67.4298 28.5842 66.9954 28.3167 66.6266 27.9718C65.9338 27.1985 65.5653 26.1889 65.5972 25.1518C65.6292 24.1147 66.0592 23.1296 66.7982 22.4003C67.7081 21.6858 68.8468 21.3254 70.0027 21.3861C70.9718 21.3514 71.9275 21.6212 72.735 22.1575C72.8352 21.3415 72.6696 20.5151 72.2629 19.8003C71.8395 19.2729 71.1478 18.9856 70.4748 19.0575C69.34 19.1262 68.2352 19.4484 67.2417 20.0003ZM72.6778 25.4003V24.1718C72.0542 23.7411 71.3027 23.5346 70.5463 23.5861C69.6505 23.5246 68.5307 24.0585 68.5721 25.086C68.5507 25.4813 68.7505 25.8655 69.0585 26.1146C70.1635 26.9581 71.9033 26.4567 72.6778 25.4003ZM78.7148 28.9289H81.8047V21.5003L85.4813 26.0003H85.5671L89.1435 21.5003V28.8575H92.2335V16.8146H89.5155L85.6243 21.8575L81.5473 16.8146H78.7577L78.7148 28.9289ZM96.7255 27.5003C95.5676 26.2731 94.9228 24.6507 94.9228 22.9646C94.9228 21.2785 95.5676 19.6561 96.7255 18.4289C98.0469 17.2764 99.7419 16.6414 101.496 16.6414C103.251 16.6414 104.946 17.2764 106.267 18.4289C107.47 19.5674 108.162 21.2029 108.141 22.8575C108.191 24.5422 107.515 26.2197 106.31 27.4003C104.985 28.5444 103.291 29.174 101.539 29.174C99.7873 29.174 98.0509 28.6444 96.7255 27.5003ZM98.2705 22.8575C98.208 24.6868 99.68 26.3724 101.561 26.3146C103.454 26.3774 104.933 24.7036 104.865 22.8575C104.931 21.0451 103.426 19.3715 101.561 19.4289C99.7028 19.3913 98.2011 21.0456 98.2705 22.8575ZM112.018 28.5718C113.006 28.9407 114.125 29.1723 115.18 29.1718C116.576 29.2405 117.963 28.903 119.171 28.2003C119.635 27.9275 120.019 27.5365 120.283 27.0672C120.547 26.5979 120.682 26.0671 120.673 25.5289C120.686 24.8568 120.446 24.2044 120.001 23.7003C119.501 23.1655 118.836 22.8135 118.112 22.7003C118.753 22.51 119.325 22.1378 119.757 21.6289C120.134 21.1806 120.342 20.6144 120.344 20.0289C120.373 19.536 120.274 19.0439 120.055 18.6008C119.837 18.1576 119.508 17.7785 119.099 17.5003C118.024 16.8366 116.954 16.6486 115.509 16.6003C114.383 16.5628 113.561 16.6372 112.648 16.9788C111.736 17.3204 110.914 17.8652 110.244 18.5718L111.532 20.4146C112.428 19.5526 113.608 19.045 114.851 18.9861C116.281 18.9861 116.968 19.4289 116.968 20.3003C116.977 20.4959 116.943 20.6911 116.868 20.8718C116.739 21.1597 116.524 21.4007 116.252 21.5618C115.981 21.723 115.666 21.7963 115.351 21.7718H113.234V23.8575H115.494C115.972 23.826 116.446 23.9569 116.839 24.2289C116.991 24.3405 117.114 24.4876 117.197 24.6575C117.281 24.831 117.325 25.0216 117.325 25.2146C117.324 25.4344 117.263 25.6497 117.15 25.8382C117.037 26.0266 116.875 26.1813 116.682 26.2861C116.12 26.5857 115.486 26.7241 114.851 26.6861C114.198 26.6746 113.555 26.5287 112.962 26.2575C112.38 26.0287 111.857 25.6723 111.432 25.2146L109.844 27.1432C110.432 27.7999 111.181 28.2923 112.018 28.5718ZM124.464 20.0003L123.691 17.7432C124.991 16.9798 126.249 16.5969 127.983 16.6003C128.756 16.6019 129.317 16.6217 129.949 16.833C130.582 17.0444 131.164 17.3834 131.66 17.8289C132.516 18.891 132.931 20.2413 132.818 21.6003V28.8575H130.186V27.4289C129.769 27.9673 129.222 28.3921 128.597 28.6642C127.58 29.1072 126.174 29.1421 125.127 28.7573C124.653 28.5831 124.218 28.316 123.849 27.9718C123.156 27.1985 122.787 26.1889 122.819 25.1518C122.851 24.1147 123.281 23.1296 124.02 22.4003C124.93 21.6858 125.912 21.3755 127.225 21.3861C128.339 21.395 129.159 21.621 129.972 22.1575C130.057 21.3421 129.893 20.5201 129.499 19.8003C129.074 19.275 128.384 18.9882 127.711 19.0575C126.572 19.1241 125.462 19.4464 124.464 20.0003ZM129.9 25.4003V24.1718C129.281 23.7432 128.535 23.5367 127.783 23.5861C126.876 23.5259 125.793 24.0609 125.809 25.086C125.816 25.4953 125.974 25.8551 126.295 26.1146C127.404 26.9479 129.129 26.4647 129.9 25.4003ZM144.334 28.9289H147.439V16.8146H144.334V21.4289H139.041V16.8146H135.951V28.8575H139.041V24.286H144.334V28.9289ZM156.794 16.886H160.743V28.8575H157.653V25.2575H155.936L153.433 28.8575H149.885L153.118 24.5718C151.448 23.9689 150.545 22.1815 150.821 20.4603C150.98 19.4691 151.51 18.5748 152.303 17.9575C153.638 17.0919 155.215 16.886 156.794 16.886ZM154.091 21.3003C154.093 22.335 155.15 23.0055 156.108 22.9575H157.724V19.5003H156.294C155.215 19.4415 154.079 20.1481 154.091 21.3146V21.3003ZM162.932 19.886H166.923V28.8575H170.013V19.9003H173.961V16.8146H162.946L162.932 19.886ZM180.527 28.8432H176.164V16.8146H179.254V20.1146H180.771C182.236 20.1146 183.624 20.3968 184.79 21.2289C185.656 21.9873 186.146 23.1371 186.092 24.286C186.139 25.5338 185.602 26.7773 184.662 27.6003C183.48 28.5238 182.157 28.8432 180.527 28.8432ZM180.499 22.5718H179.254V26.1861H180.47C182.029 26.1861 182.816 25.5861 182.816 24.4003C182.816 23.2146 182.044 22.5718 180.499 22.5718ZM190.899 28.8718H187.809V16.8146H190.899V28.8718ZM204.747 27.7432L203.845 25.486C202.868 26.2373 201.659 26.6262 200.426 26.5861C198.714 26.6532 196.992 25.5612 196.793 23.7718H205.534C205.679 23.2319 205.741 22.6732 205.719 22.1146C205.76 20.6189 205.145 19.1319 204.06 18.1003C202.346 16.4735 199.657 16.093 197.48 16.9427C195.903 17.5577 194.628 18.8478 194.018 20.4242C193.434 21.9359 193.42 23.821 194.011 25.3326C194.645 26.9528 195.951 28.1694 197.577 28.77C199.884 29.6216 202.801 29.2308 204.747 27.7432ZM196.707 21.7146C196.768 20.9526 197.145 20.2276 197.734 19.7401C198.85 18.8175 200.82 18.861 201.9 19.8289C202.404 20.3146 202.681 21.0163 202.644 21.7146H196.707Z"
          fill="#FFFFFF"></path>
    <path
        d="M30.324 10.5583C29.2572 9.40962 27.9758 8.3061 26.3022 7.47917C20.2484 4.49318 14.4937 6.6099 11.6997 8.72662C8.54151 11.1199 6.06354 15.0034 6.00709 19.7054C5.97887 22.0394 6.43044 24.4976 7.85005 26.9417C9.49827 29.7838 11.5614 31.4151 13.6047 32.4678C16.904 34.1696 20.2682 34.2007 22.6671 33.7632C26.8497 33.004 29.2374 30.5627 29.2374 30.5627C29.2374 30.5627 29.8583 29.8402 29.1894 29.1826C28.5685 28.5674 27.9279 29.0697 27.863 29.1149C27.6061 29.2927 25.0943 31.7283 20.6802 32.0162C15.9416 32.3267 10.9546 29.5269 8.87455 24.475C6.98643 19.8916 8.46531 15.0768 10.9828 12.167C13.4975 9.25722 18.2333 6.9768 23.5985 8.59962C28.2101 9.99383 30.3804 13.66 31.1453 15.5453C31.5997 16.7194 31.8791 17.9527 31.9779 19.2086C32.0541 20.298 31.9383 22.1297 31.5997 23.2135C30.9985 25.1326 28.1367 25.2342 27.4876 23.2135C27.1461 22.1523 27.211 20.5746 27.211 20.0243C27.211 19.2425 27.1489 18.3224 26.8695 17.6818C26.7086 17.3205 26.4462 17.0101 26.1131 16.7984C25.7801 16.5839 25.3906 16.471 24.9955 16.4766C24.6004 16.4795 24.2165 16.5952 23.8835 16.8069C23.5505 17.0185 23.2852 17.3205 23.113 17.6761C22.7913 18.3535 22.5486 19.6122 22.2522 20.4646C21.9954 21.2012 21.8882 21.8447 21.5975 22.6547C21.1798 23.8316 20.9257 24.9746 20.6576 25.4346C20.4996 25.7056 20.3302 25.7112 20.223 25.6689C20.1637 25.6491 20.1129 25.6096 20.0762 25.5588C20.0424 25.508 20.0226 25.4459 20.0226 25.3838C20.0226 25.3838 19.9916 21.7995 20.0141 20.9923C20.0678 18.7514 20.0762 17.2302 19.8956 16.2622C19.6529 14.9441 17.8861 14.2527 16.8221 15.7739C16.0008 16.9508 15.3348 18.3196 14.5361 19.807C14.2538 20.3347 13.9631 20.8597 13.6527 21.4326C13.3874 21.9209 13.0374 22.1043 12.648 22.0055C12.5238 21.9745 12.4109 21.9096 12.3177 21.8221C12.2246 21.7346 12.1569 21.6245 12.1174 21.5003C12.0101 21.1673 12.0299 20.679 12.0779 20.1061C12.1428 19.2481 12.3262 18.4043 12.6254 17.5971C13.5398 15.1586 14.8437 14.1144 15.1146 13.9394C15.7186 13.5499 16.252 13.9704 16.4073 14.4418C16.5258 14.803 17.0056 14.8708 17.2342 14.7438C17.6773 14.4954 17.9059 13.8322 16.9209 13.1322C15.1231 11.8509 13.2914 12.6891 12.7383 13.0645C10.551 14.5434 9.75228 17.0298 9.5773 17.7326C9.40514 18.4156 9.17935 19.3695 9.29225 20.7976C9.43618 22.6349 10.2095 23.7638 11.234 23.8965C12.7213 24.0912 13.9829 22.4656 14.3865 21.9604C14.7026 21.5652 15.315 20.4222 15.7807 19.5699C16.046 19.0845 16.252 18.695 16.3169 18.5821C16.4947 18.2716 16.6076 18.0458 16.6133 18.0402C16.6189 18.0261 16.6415 17.9414 16.7149 17.9499C16.7713 17.9555 16.7826 18.0261 16.7854 18.0487C16.7939 18.1616 16.7911 18.0825 16.825 18.4664C16.8645 18.901 16.9717 20.3432 17.1777 22.7704C17.3809 25.1947 17.8579 25.985 17.9595 26.1261C17.9708 26.143 18.0301 26.2503 18.0583 26.3011C18.2163 26.572 18.4421 26.795 18.7159 26.9502C18.9868 27.1054 19.2973 27.1873 19.6077 27.1873C21.0866 27.1873 21.5946 25.5503 21.8825 24.9802C22.2805 24.1843 23.209 20.4646 23.686 19.2933C23.8186 18.9659 24.3323 18.997 24.3915 19.3723C24.431 19.6122 24.4762 19.8747 24.5101 20.1118C24.5496 20.3714 24.6568 20.9754 24.7725 21.7402C24.8629 22.3301 24.9334 23.0187 25.1366 23.7187C25.3229 24.3734 25.6446 25.0254 26.1357 25.5447C26.9401 26.3942 28.148 26.9191 29.5902 26.7837C30.6232 26.6877 31.419 26.1684 31.9891 25.7027C32.9628 24.9125 33.7446 23.3094 33.8998 21.9688C34.2244 19.1635 33.9958 14.4926 30.3212 10.5442"
        fill="#007AFF"></path>
</svg>
